<?xml version="1.0" encoding="UTF-8" standalone="no"?>
<!-- Created with Inkscape (http://www.inkscape.org/) -->

<svg
   xmlns:dc="http://purl.org/dc/elements/1.1/"
   xmlns:cc="http://creativecommons.org/ns#"
   xmlns:rdf="http://www.w3.org/1999/02/22-rdf-syntax-ns#"
   xmlns:svg="http://www.w3.org/2000/svg"
   xmlns="http://www.w3.org/2000/svg"
   xmlns:sodipodi="http://sodipodi.sourceforge.net/DTD/sodipodi-0.dtd"
   xmlns:inkscape="http://www.inkscape.org/namespaces/inkscape"
   width="96.233894mm"
   height="31.19331mm"
   viewBox="0 0 96.233894 31.19331"
   version="1.1"
   id="svg8"
   inkscape:version="0.92.2 (5c3e80d, 2017-08-06)"
   sodipodi:docname="nazrul-sign.svg">
  <defs
     id="defs2" />
  <sodipodi:namedview
     id="base"
     pagecolor="#ffffff"
     bordercolor="#666666"
     borderopacity="1.0"
     inkscape:pageopacity="0.0"
     inkscape:pageshadow="2"
     inkscape:zoom="0.49497475"
     inkscape:cx="-57.179001"
     inkscape:cy="-336.02535"
     inkscape:document-units="mm"
     inkscape:current-layer="layer1"
     showgrid="false"
     fit-margin-top="0"
     fit-margin-left="0"
     fit-margin-right="0"
     fit-margin-bottom="0"
     inkscape:window-width="1920"
     inkscape:window-height="1017"
     inkscape:window-x="-8"
     inkscape:window-y="-8"
     inkscape:window-maximized="1" />
  <metadata
     id="metadata5">
    <rdf:RDF>
      <cc:Work
         rdf:about="">
        <dc:format>image/svg+xml</dc:format>
        <dc:type
           rdf:resource="http://purl.org/dc/dcmitype/StillImage" />
        <dc:title></dc:title>
      </cc:Work>
    </rdf:RDF>
  </metadata>
  <g
     inkscape:label="Layer 1"
     inkscape:groupmode="layer"
     id="layer1"
     transform="translate(-3.6780663,-9.4184526)">
    <path
       inkscape:connector-curvature="0"
       id="path842"
       d="m 41.009444,39.639462 c -1.16182,-1.04964 -1.95373,-2.32687 -1.69862,-2.73964 0.28495,-0.46105 0.51118,-0.2747 1.45041,1.19472 0.52087,0.81492 1.24686,1.58184 1.65932,1.75288 1.00163,0.41536 1.15752,0.76434 0.34143,0.76434 -0.40743,0 -1.1042,-0.38656 -1.75254,-0.9723 z m 21.84449,-1.89623 c -1.13599,-0.69454 -1.60557,-1.32027 -1.25437,-1.67147 0.20259,-0.20259 0.55909,-0.009 1.24114,0.67268 0.52631,0.5263 1.13856,0.95691 1.36058,0.95691 0.22202,0 0.33009,0.11906 0.24015,0.26458 -0.23957,0.38764 -0.69336,0.32398 -1.5875,-0.2227 z M 3.8801643,36.489082 c -0.58911,-1.53519 0.13223,-4.6796 1.86991,-8.15111 3.33714,-6.66695 7.7734697,-12.05581 12.6429397,-15.35756 2.24835,-1.5245 3.77206,-2.27218 2.52447,-1.23874 -0.36381,0.30135 -0.76477,0.55056 -0.89103,0.55379 -0.46389,0.0119 -4.05061,2.91631 -5.61337,4.54553 -1.32418,1.38051 -3.39437,3.8557 -4.2855,5.1239 -2.1976097,3.12749 -3.4162197,5.31328 -4.4955397,8.06354 -1.23901,3.15716 -1.36014,3.66102 -1.27797,5.31584 0.0747,1.50474 -0.13831,2.01936 -0.47391,1.14481 z m 73.0249997,-0.26458 c -0.30672,-0.79931 -0.17593,-1.96274 0.22066,-1.96274 0.55906,0 0.67603,0.3306 0.50023,1.41388 -0.16609,1.0235 -0.45449,1.24308 -0.72089,0.54886 z m -40.80352,-2.28413 c -0.35696,-0.69029 -0.40926,-1.30104 -0.27755,-3.24115 0.0893,-1.31482 0.27764,-2.78386 0.41861,-3.26452 l 0.25631,-0.87395 -1.11768,0.16761 c -1.40039,0.21 -3.09775,-0.4232 -3.996,-1.4907 -0.52629,-0.62546 -0.63292,-1.0191 -0.58884,-2.1737 0.0737,-1.92989 0.66316,-2.71967 2.72905,-3.65639 1.57016,-0.71194 3.6439,-1.04504 4.23433,-0.68014 0.12643,0.0781 0.51235,-0.009 0.85761,-0.19388 0.77462,-0.41457 0.50019,-0.60204 -1.18192,-0.8074 -0.7175,-0.0876 -1.89986,-0.26782 -2.62746,-0.40051 -0.7276,-0.13269 -1.849,-0.27261 -2.492,-0.31093 l -1.16908,-0.0697 -0.73321,2.27576 c -0.40326,1.25166 -0.97851,2.67738 -1.27832,3.16825 -0.50523,0.8272 -0.53243,1.15165 -0.37174,4.43398 0.14578,2.97779 0.1142,3.5219 -0.19843,3.41854 -0.26444,-0.0874 -0.43673,-0.88084 -0.59664,-2.74772 -0.12367,-1.44364 -0.27374,-2.67565 -0.33349,-2.7378 -0.0598,-0.0622 -0.43483,0.18816 -0.83349,0.55624 -1.1329,1.04601 -5.36159,4.18697 -5.63692,4.18697 -0.57676,0 -0.10135,-0.49483 2.03358,-2.11666 1.24513,-0.94589 2.52123,-1.94188 2.83577,-2.21332 0.31454,-0.27145 0.83756,-0.67064 1.16227,-0.8871 0.53896,-0.35928 0.579,-0.54983 0.45965,-2.18761 -0.0719,-0.98672 -0.35258,-2.46647 -0.62371,-3.28834 -0.45168,-1.36911 -0.45693,-1.51295 -0.0628,-1.71682 0.48524,-0.25097 2.8376,-0.63021 3.12896,-0.50444 0.30121,0.13002 0.57288,-1.62579 0.44833,-2.89761 -0.18261,-1.86484 -0.75827,-2.94208 -1.80615,-3.37991 -1.2627,-0.5275901 -3.42469,-0.4727601 -5.17456,0.13123 -1.88075,0.64916 -1.99158,0.51358 -0.20932,-0.25606 0.77527,-0.3347901 2.16258,-0.6566701 3.11691,-0.7231701 1.48757,-0.10367 1.84154,-0.036 2.6215,0.50113 1.65799,1.1417901 2.00597,1.8693601 2.00741,4.1972001 l 0.001,2.08568 0.92604,0.13059 c 5.24466,0.73957 7.26792,1.11635 7.5593,1.40772 0.28354,0.28355 0.5688,0.19388 1.60247,-0.50374 0.94402,-0.63711 1.55829,-0.85205 2.46402,-0.86216 1.13764,-0.0127 1.23431,0.0434 1.69368,0.98366 0.3988,0.81625 0.43458,1.14802 0.19725,1.82884 -0.15946,0.45744 -0.23252,0.88912 -0.16235,0.95929 0.0702,0.0702 0.67999,-0.0834 1.35514,-0.34122 1.40623,-0.53705 4.10617,-0.45248 5.08718,0.15934 0.6478,0.40401 1.61559,2.15998 1.52619,2.76913 -0.11846,0.80707 -0.51881,0.46329 -0.7953,-0.68291 -0.234,-0.97003 -0.45784,-1.27285 -1.21299,-1.64094 -1.1419,-0.55659 -2.65173,-0.58972 -4.28519,-0.094 -1.74737,0.53027 -2.14636,0.78251 -2.99239,1.8917 l -0.74512,0.97691 0.9025,0.74844 c 1.02186,0.84743 1.43949,0.93947 1.65963,0.36579 0.35941,-0.93661 1.40512,0.21335 1.09177,1.20062 -0.22233,0.7005 -0.91606,0.65323 -2.08832,-0.14228 -1.10887,-0.7525 -1.24357,-0.79345 -1.08799,-0.33073 0.0612,0.1819 0.17889,0.80698 0.26162,1.38906 0.0827,0.58208 0.27994,1.45625 0.43822,1.94259 0.51519,1.5829 -0.14419,1.54859 -1.04897,-0.0546 -0.75803,-1.34311 -2.71101,-3.07863 -3.4644,-3.07863 -0.51885,0 -0.29152,-0.49093 0.31225,-0.67433 0.89993,-0.27336 2.31511,-1.41673 2.31511,-1.87044 0,-0.22065 0.39856,-0.78013 0.8857,-1.24331 1.16138,-1.10424 1.49555,-1.77921 1.49555,-3.02077 0,-1.17122 -0.3681,-1.65781 -1.25408,-1.65781 -1.43799,0 -3.99575,1.94228 -4.52654,3.43731 -0.96731,2.72456 -1.3993,4.28889 -1.27431,4.6146 0.0804,0.20954 -0.0707,0.65673 -0.33582,0.99376 -1.25515,1.59567 -1.64275,8.71926 -0.4495,8.26137 0.50699,-0.19455 0.97291,-1.9443 0.82511,-3.09868 -0.18076,-1.41186 0.33357,-1.20971 0.54722,0.21508 0.25824,1.72206 -0.58634,3.53189 -1.66122,3.55981 -0.17817,0.005 -0.52187,-0.37434 -0.76378,-0.84215 z m 7.04533,-8.78509 c -0.32487,-1.56488 -0.38935,-1.58918 -1.6717,-0.62998 -0.44536,0.33313 -0.41936,0.39811 0.39688,0.99201 0.4804,0.34954 0.97366,0.80209 1.09614,1.00567 0.41266,0.6859 0.48695,0.11725 0.17868,-1.3677 z m -7.11371,0.79094 c 1.2494,-0.2609 1.18455,-1.18574 -0.17091,-2.43754 -1.46729,-1.35507 -1.55045,-2.13617 -0.32665,-3.06807 0.47295,-0.36013 1.12779,-0.73948 1.45521,-0.84298 0.32742,-0.10351 0.59532,-0.31542 0.59532,-0.47091 0,-0.43546 -2.11891,-0.0565 -3.7428,0.66932 -1.86595,0.83405 -2.50976,1.97422 -2.37066,4.19836 0.0475,0.75912 1.17922,1.83207 2.14889,2.03726 0.92025,0.19473 1.10046,0.18834 2.4116,-0.0854 z m 1.76415,-3.25998 c 0.16222,-0.5457 0.37524,-1.50044 0.47337,-2.12164 0.16261,-1.0294 0.13433,-1.11335 -0.31921,-0.94765 -0.94922,0.34681 -2.74659,1.70756 -2.74659,2.07938 0,0.3746 0.0953,0.47864 1.32291,1.44422 0.8901,0.70011 0.93067,0.68559 1.26952,-0.45431 z m -8.4338,-2.19824 c 0.27733,-0.79188 0.58725,-1.88626 0.6887,-2.43197 0.20853,-1.12156 -0.005,-1.21025 -1.74727,-0.72622 l -0.94682,0.26302 0.53702,2.38103 c 0.29536,1.30957 0.63312,2.28494 0.75057,2.16748 0.11746,-0.11746 0.44047,-0.86146 0.7178,-1.65334 z m 10.10845,-1.77051 c 0.33589,-0.42829 0.32344,-0.43391 -0.16604,-0.0749 -0.29104,0.21349 -0.57878,0.42185 -0.63941,0.46302 -0.0606,0.0412 0.0141,0.0749 0.16604,0.0749 0.15195,0 0.43969,-0.20836 0.63941,-0.46302 z m 1.56073,13.37548 c -0.56667,-0.93182 -0.34778,-1.53537 0.55682,-1.53537 0.43445,0 0.45593,0.0695 0.16604,0.53724 -0.40628,0.65553 0.0588,1.0674 0.95309,0.844 0.55987,-0.13986 0.56054,-0.13519 0.062,0.4293 -0.69406,0.78587 -1.13516,0.71603 -1.73795,-0.27517 z m 20.51141,-0.72812 c -0.56114,-0.57466 -1.09131,-1.03681 -1.17817,-1.027 -0.51249,0.0579 -1.08397,-0.0735 -1.08397,-0.24925 0,-0.11243 0.42286,-0.43215 0.93969,-0.71048 1.29567,-0.69776 3.8913,-3.29685 4.43345,-4.43936 0.70415,-1.48387 0.48363,-3.75748 -0.31648,-3.26299 -0.16778,0.1037 -0.29416,0.005 -0.29416,-0.23068 0,-0.22687 -0.10293,-0.41249 -0.22873,-0.41249 -0.459,0 -1.86372,1.48982 -2.68182,2.84427 -0.46146,0.76398 -0.94786,1.38906 -1.0809,1.38906 -0.38038,0 -0.3154,-0.14448 0.95963,-2.13366 0.96832,-1.51068 1.43351,-1.9771 2.39687,-2.40324 0.65744,-0.29082 1.14973,-0.66562 1.09397,-0.8329 -0.0558,-0.16727 -1.04505,-0.50476 -2.19843,-0.74996 -3.16156,-0.67214 -4.04683,-0.99413 -4.36433,-1.58739 -0.15903,-0.29714 -0.24972,-0.57714 -0.20155,-0.62221 0.30204,-0.28265 2.22811,-0.5932 3.92404,-0.6327 1.71618,-0.04 2.08154,0.0351 2.7033,0.55532 0.41133,0.34417 0.76036,0.94113 0.81579,1.39528 0.0791,0.64784 0.2908,0.86671 1.15188,1.19063 2.38563,0.89742 2.988,1.79077 2.47988,3.67778 -0.14989,0.55667 -0.57588,1.45913 -0.94665,2.00548 -0.77526,1.14241 -0.73428,1.42986 0.0939,0.65834 0.31406,-0.29259 0.93153,-0.60409 1.37217,-0.69221 0.69467,-0.13894 0.85393,-0.34178 1.19822,-1.52608 0.53384,-1.83637 2.15823,-4.52844 2.95017,-4.88927 1.1167,-0.50881 2.12613,-0.34484 3.09067,0.50204 0.91885,0.80676 1.93031,2.9199 2.08931,4.36496 0.0852,0.77442 0.0962,0.76629 0.45073,-0.33387 0.45553,-1.41351 0.95831,-1.88718 1.44699,-1.3632 0.41878,0.44904 0.94585,2.51662 0.95148,3.73246 0.008,1.63533 0.38702,1.64231 1.17252,0.0216 2.00538,-4.1377 2.40364,-4.83474 3.34451,-5.8537 0.55767,-0.60394 1.12504,-1.09808 1.26083,-1.09808 0.40291,0 0.57062,0.75263 0.3166,1.42076 -0.13015,0.34232 -0.30927,1.33234 -0.39806,2.20003 -0.13353,1.30506 -0.0752,1.68854 0.33788,2.21957 0.27461,0.35306 0.6449,1.08842 0.82287,1.63412 0.34659,1.06272 0.81171,1.33022 0.81171,0.46682 0,-1.32313 2.04048,-8.04371 3.05999,-10.07846 0.87601,-1.74835 2.15562,-2.62241 4.33246,-2.95935 0.98922,-0.15312 1.99816,-0.20181 2.2421,-0.1082 0.74455,0.28571 1.204706,1.80678 1.07583,3.55617 -0.13523,1.83559 -1.37389,5.42757 -1.81525,5.26402 -0.34064,-0.12623 -0.35172,-0.0683 0.41332,-2.16027 0.66989,-1.83174 0.83234,-5.17853 0.27826,-5.73264 -0.73731,-0.73737 -4.08612,-0.0348 -5.11912,1.07404 -1.04019,1.11651 -1.91178,3.54652 -3.41702,9.52675 -0.41754,1.65884 -0.87921,3.13612 -1.02594,3.28285 -0.32577,0.32577 -0.98885,-0.16163 -1.22283,-0.89885 -0.0882,-0.2779 -0.32171,-0.50527 -0.5189,-0.50527 -0.66877,0 -1.00823,-1.80581 -0.85663,-4.55702 0.14312,-2.59732 0.14112,-2.60847 -0.36477,-2.02518 -0.27978,0.32259 -1.34457,2.29274 -2.36619,4.37811 -2.11991,4.32724 -2.41101,4.58571 -2.75521,2.4464 -0.53572,-3.32969 -0.78096,-4.47565 -0.95778,-4.47565 -0.11093,0 -0.33903,0.44649 -0.50689,0.99219 -0.16786,0.5457 -0.371,1.17078 -0.45142,1.38906 -0.0804,0.21828 -0.18185,0.635 -0.2254,0.92604 -0.61664,4.12087 -1.76178,4.98556 -2.01479,1.52136 -0.0709,-0.97088 -0.0606,-0.9634 -0.789,-0.57358 -1.04749,0.56059 -1.71939,0.52117 -2.43596,-0.14292 -1.19764,-1.10994 -0.88518,-1.51832 0.59624,-0.77929 1.58909,0.79275 3.39445,-0.29373 3.64965,-2.1964 0.26263,-1.95803 -1.72823,-4.84062 -3.34318,-4.84062 -1.90723,0 -4.0453,4.45948 -4.3042,8.97752 -0.12888,2.24893 -0.73504,2.55284 -0.74014,0.37109 -0.002,-0.84887 -0.075,-1.80979 -0.16228,-2.13538 l -0.15867,-0.59198 -0.82991,0.56632 c -0.45645,0.31148 -1.44076,1.15507 -2.18736,1.87464 -1.93972,1.86951 -2.06812,1.15087 -0.23058,-1.29052 1.78253,-2.36832 2.30649,-3.51752 2.19777,-4.82039 -0.0752,-0.90088 -0.17785,-1.0042 -1.53578,-1.54552 -1.75715,-0.70047 -2.18082,-0.46986 -1.49079,0.81146 0.71416,1.32612 0.6241,3.15568 -0.21799,4.42816 -0.73587,1.11197 -2.53535,2.96116 -3.49836,3.59498 -0.57625,0.37927 -0.57568,0.38096 0.48438,1.44103 0.99967,0.99966 1.08264,1.03317 1.42841,0.57692 0.35131,-0.46354 0.36747,-0.46104 0.37552,0.058 0.009,0.58688 -0.45074,1.1774 -0.91685,1.1774 -0.15964,0 -0.74937,-0.47017 -1.31051,-1.04483 z m 16.70261,-4.84215 c 0.15404,-0.9095 0.23957,-1.69992 0.19006,-1.75649 -0.15167,-0.17329 -0.67933,1.36781 -0.82788,2.41795 -0.23926,1.69136 0.34129,1.08929 0.63782,-0.66146 z m -13.67309,-8.42477 c 0,-0.59662 -0.16128,-0.84392 -0.67868,-1.04063 -0.76695,-0.2916 -3.61147,-0.30208 -4.61298,-0.017 l -0.66146,0.18828 0.6407,0.34811 c 0.85588,0.46503 3.67656,1.25338 4.58482,1.2814 0.63482,0.0196 0.7276,-0.0773 0.7276,-0.76015 z m -10.9519,11.51198 c -0.0883,-0.23018 -0.1606,-0.74612 -0.1606,-1.14652 0,-1.01792 -0.23243,-1.14449 -0.99715,-0.54296 -0.80162,0.63055 -1.21307,0.65373 -1.76725,0.0995 -0.34309,-0.34309 -0.57412,-0.36756 -1.24901,-0.13229 -1.05255,0.36692 -1.01367,0.37424 -1.01367,-0.19101 0,-0.46083 1.2741,-1.90158 1.68163,-1.90158 0.1086,0 0.37157,0.41672 0.58438,0.92604 0.42763,1.02345 0.76607,1.129 1.64538,0.51311 0.88948,-0.62302 1.45858,-1.91246 1.29338,-2.93047 -0.0786,-0.48413 -0.0376,-0.94528 0.091,-1.02478 0.51097,-0.3158 0.78961,1.03282 0.78961,3.82162 0,2.32617 -0.0757,2.92781 -0.36857,2.92781 -0.20271,0 -0.44084,-0.18833 -0.52917,-0.41851 z m -3.60018,-2.4919 c 0,-0.14552 -0.11906,-0.26458 -0.26458,-0.26458 -0.14552,0 -0.26458,0.11906 -0.26458,0.26458 0,0.14552 0.11906,0.26459 0.26458,0.26459 0.14552,0 0.26458,-0.11907 0.26458,-0.26459 z"
       style="fill:#000000;fill-opacity:1;stroke-width:0.26458332"
       sodipodi:nodetypes="scccsscscscccccccccccccscccccccccccccsccccsccccscccccccccccccccccccccscsccccccccccccccscscssccccccccccscccccccsccccccccsscscccccscccsccscsccccssccsscssccccccccccccccccccccccsccccssccscccccscsscscsscccccccsccccccccccsccccsccccccscccccsscscccssscccssccsssss"
       inkscape:export-xdpi="150"
       inkscape:export-ydpi="150" />
  </g>
</svg>
